<?xml version="1.0" encoding="UTF-8" standalone="no"?>
<!-- Created with Inkscape (http://www.inkscape.org/) -->

<svg
   width="166.19901mm"
   height="166.19901mm"
   viewBox="0 0 166.199 166.19901"
   version="1.1"
   id="svg1"
   xml:space="preserve"
   inkscape:version="1.3 (0e150ed6c4, 2023-07-21)"
   sodipodi:docname="icon.svg"
   inkscape:export-filename="icon.png"
   inkscape:export-xdpi="96"
   inkscape:export-ydpi="96"
   xmlns:inkscape="http://www.inkscape.org/namespaces/inkscape"
   xmlns:sodipodi="http://sodipodi.sourceforge.net/DTD/sodipodi-0.dtd"
   xmlns="http://www.w3.org/2000/svg"
   xmlns:svg="http://www.w3.org/2000/svg"><sodipodi:namedview
     id="namedview1"
     pagecolor="#ffffff"
     bordercolor="#000000"
     borderopacity="1"
     inkscape:showpageshadow="2"
     inkscape:pageopacity="0.0"
     inkscape:pagecheckerboard="true"
     inkscape:deskcolor="#ffffff"
     inkscape:document-units="mm"
     inkscape:zoom="0.69229107"
     inkscape:cx="-4.3334374"
     inkscape:cy="598.7366"
     inkscape:window-width="2560"
     inkscape:window-height="1334"
     inkscape:window-x="-11"
     inkscape:window-y="-11"
     inkscape:window-maximized="1"
     inkscape:current-layer="layer1" /><defs
     id="defs1"><filter
       style="color-interpolation-filters:sRGB;"
       inkscape:label="Drop Shadow"
       id="filter49"
       x="-0.18565611"
       y="-0.15213446"
       width="1.4616144"
       height="1.3558429"><feFlood
         result="flood"
         in="SourceGraphic"
         flood-opacity="0.454902"
         flood-color="rgb(46,40,39)"
         id="feFlood48" /><feGaussianBlur
         result="blur"
         in="SourceGraphic"
         stdDeviation="4.487179"
         id="feGaussianBlur48" /><feOffset
         result="offset"
         in="blur"
         dx="5.238095"
         dy="3.650794"
         id="feOffset48" /><feComposite
         result="comp1"
         operator="in"
         in="flood"
         in2="offset"
         id="feComposite48" /><feComposite
         result="comp2"
         operator="over"
         in="SourceGraphic"
         in2="comp1"
         id="feComposite49" /></filter><filter
       inkscape:menu-tooltip="In and out glow with a possible offset and colorizable flood"
       inkscape:menu="Shadows and Glows"
       inkscape:label="Cutout Glow"
       style="color-interpolation-filters:sRGB;"
       id="filter64"
       x="-0.25282615"
       y="-0.20717521"
       width="1.6109965"
       height="1.5006734"><feOffset
         dy="3"
         dx="3"
         id="feOffset64" /><feGaussianBlur
         stdDeviation="3"
         result="blur"
         id="feGaussianBlur64" /><feFlood
         flood-color="rgb(0,0,0)"
         flood-opacity="1"
         result="flood"
         id="feFlood64" /><feComposite
         in="flood"
         in2="SourceGraphic"
         operator="in"
         result="composite"
         id="feComposite64" /><feBlend
         in="blur"
         in2="composite"
         mode="normal"
         id="feBlend64" /></filter><filter
       inkscape:label="Cubes"
       inkscape:menu="Scatter"
       inkscape:menu-tooltip="Scattered cubes; adjust the Morphology primitive to vary size"
       style="color-interpolation-filters:sRGB"
       id="filter102"
       x="-0.045743587"
       y="-0.045743587"
       width="1.0914872"
       height="1.0914872"><feTurbulence
         baseFrequency="0.14"
         numOctaves="1"
         type="fractalNoise"
         id="feTurbulence101" /><feColorMatrix
         values="1 0 0 0 0 0 1 0 0 0 0 0 1 0 0 0 0 0 6 -3.5 "
         result="result5"
         id="feColorMatrix101" /><feComposite
         in2="result5"
         operator="in"
         in="SourceGraphic"
         result="result6"
         id="feComposite101" /><feMorphology
         result="result3"
         radius="5"
         operator="dilate"
         in="result6"
         id="feMorphology101" /><feDisplacementMap
         result="result4"
         scale="0"
         yChannelSelector="A"
         xChannelSelector="R"
         in="result3"
         in2="result3"
         id="feDisplacementMap101" /><feComposite
         in2="result4"
         operator="arithmetic"
         result="result2"
         k1="1"
         k3="1"
         id="feComposite102"
         k2="0"
         k4="0" /><feBlend
         mode="darken"
         in="result2"
         in2="result2"
         id="feBlend102" /><feConvolveMatrix
         order="3 3"
         kernelMatrix="2 0 0 0 1 0 0 0 -1 "
         targetX="1"
         targetY="1"
         divisor="2"
         edgeMode="duplicate"
         id="feConvolveMatrix102" /></filter></defs><g
     inkscape:label="Layer 1"
     inkscape:groupmode="layer"
     id="layer1"
     transform="translate(-52.390338,-16.900425)"><g
       id="g102"
       style="display:inline"
       transform="matrix(1.513986,0,0,1.513986,-64.960576,-56.222305)"><circle
         style="opacity:1;fill:#6ba368;fill-opacity:1;stroke-width:3.28001;stroke-linecap:square;stroke-linejoin:round"
         id="path2"
         cx="132.39912"
         cy="103.18605"
         r="54.65247" /><path
         d="m 119.9095,84.42952 c -0.084,0.008 -0.16232,0.0234 -0.23513,0.0455 -0.1456,0.0442 -0.26949,0.11444 -0.37517,0.20257 -0.10567,0.0881 -0.19298,0.19422 -0.2651,0.30954 -0.0721,0.11532 -0.12921,0.2401 -0.17415,0.36587 -0.0449,0.12577 -0.0777,0.25261 -0.1018,0.37207 -0.0241,0.11946 -0.0394,0.23175 -0.0491,0.32814 -0.0194,0.19279 -0.0165,0.32246 -0.0165,0.32246 v 31.42858 c 0.0205,0.13486 0.0504,0.25748 0.0884,0.36845 0.038,0.11098 0.084,0.21006 0.13694,0.29921 0.0529,0.0892 0.11241,0.16833 0.17777,0.23771 0.0653,0.0694 0.13656,0.12919 0.21187,0.18087 0.0753,0.0517 0.15495,0.0952 0.23771,0.13126 0.0828,0.036 0.1686,0.0644 0.25632,0.0868 0.17544,0.0449 0.35817,0.0647 0.53847,0.0677 0.18029,0.003 0.3583,-0.0106 0.52348,-0.0331 0.16518,-0.0225 0.31742,-0.0538 0.44752,-0.0853 0.26018,-0.063 0.43046,-0.12764 0.43046,-0.12764 0,0 1.41539,-0.83951 3.56774,-2.12648 2.15235,-1.28697 5.04146,-3.02127 7.98969,-4.8116 1.47412,-0.89516 2.96341,-1.80431 4.38217,-2.67839 1.41875,-0.87407 2.76716,-1.71302 3.96099,-2.46806 1.19384,-0.75504 2.23303,-1.42617 3.03238,-1.96422 0.39967,-0.26903 0.73946,-0.50484 1.00872,-0.70125 0.26927,-0.19641 0.46784,-0.35354 0.5855,-0.46509 0.11403,-0.10812 0.2152,-0.21494 0.30437,-0.32039 0.0892,-0.10546 0.16639,-0.20937 0.23306,-0.31161 0.0667,-0.10225 0.12244,-0.20279 0.16898,-0.30128 0.0465,-0.0985 0.0839,-0.1952 0.11266,-0.28939 0.0575,-0.18838 0.082,-0.36746 0.0827,-0.53536 6.5e-4,-0.1679 -0.0226,-0.32462 -0.06,-0.46767 -0.0373,-0.14306 -0.0888,-0.27271 -0.14521,-0.38654 -0.0564,-0.11384 -0.11765,-0.21172 -0.17415,-0.29198 -0.11299,-0.16051 -0.20722,-0.24959 -0.20722,-0.24959 0,0 -5.52388,-3.47235 -11.41946,-7.16288 -2.94778,-1.84526 -5.98858,-3.74524 -8.47803,-5.2927 -2.48945,-1.54746 -4.42779,-2.74258 -5.17075,-3.17862 -0.27152,-0.15935 -0.51705,-0.27632 -0.73897,-0.35708 -0.22192,-0.0808 -0.42022,-0.12529 -0.59738,-0.14056 -0.096,-0.008 -0.18577,-0.008 -0.26975,0 z"
         style="opacity:0.556667;fill:#6ba368;fill-opacity:1;stroke-width:3.28001;stroke-linecap:square;stroke-linejoin:round;filter:url(#filter64)"
         id="path61" /><path
         id="path3"
         style="display:inline;opacity:1;fill:#e6e8e6;fill-opacity:1;stroke-width:3.28001;stroke-linecap:square;stroke-linejoin:round;filter:url(#filter49)"
         d="m 110.74078,66.347019 c -3.12728,-0.269561 -3.02927,3.963583 -3.02927,3.963583 v 64.016248 c 0.66882,4.39511 6.21047,2.29288 6.21047,2.29288 0,0 46.12479,-27.3548 49.95923,-30.99035 3.7164,-3.52366 0.64182,-6.423901 0.64182,-6.423901 0,0 -45.0083,-28.292489 -51.06148,-31.845085 -1.10609,-0.64916 -1.99909,-0.951168 -2.72077,-1.013375 z m 9.45627,18.161166 c 0.35432,0.03054 0.79331,0.178939 1.33635,0.497644 2.97182,1.744147 25.06824,15.634191 25.06824,15.634191 0,0 1.50934,1.42386 -0.31522,3.15381 -1.88252,1.78488 -24.52719,15.21509 -24.52719,15.21509 0,0 -2.72055,1.03175 -3.04891,-1.12603 V 86.454319 c 0,0 -0.0486,-2.078475 1.48673,-1.946134 z" /></g></g></svg>
